<?xml version="1.0" standalone="no"?>
<!DOCTYPE svg PUBLIC "-//W3C//DTD SVG 1.1//EN" "http://www.w3.org/Graphics/SVG/1.1/DTD/svg11.dtd" >
<svg xmlns="http://www.w3.org/2000/svg">
<metadata>
Created by FontForge 20120731 at Mon Oct 19 10:11:56 2015
 By Ads
</metadata>
<defs>
<font id="iconfont" horiz-adv-x="1024" >
  <font-face 
    font-family="iconfont"
    font-weight="500"
    font-stretch="normal"
    units-per-em="1024"
    panose-1="2 0 6 3 0 0 0 0 0 0"
    ascent="812"
    descent="-212"
    x-height="792"
    bbox="34 -157 988 792"
    underline-thickness="50"
    underline-position="-100"
    unicode-range="U+0078-E643"
  />
<missing-glyph horiz-adv-x="374" 
d="M34 0v682h272v-682h-272zM68 34h204v614h-204v-614z" />
    <glyph glyph-name=".notdef" horiz-adv-x="374" 
d="M34 0v682h272v-682h-272zM68 34h204v614h-204v-614z" />
    <glyph glyph-name=".null" horiz-adv-x="0" 
 />
    <glyph glyph-name="nonmarkingreturn" horiz-adv-x="341" 
 />
    <glyph glyph-name="x" unicode="x" horiz-adv-x="1001" 
d="M281 543q-27 -1 -53 -1h-83q-18 0 -36.5 -6t-32.5 -18.5t-23 -32t-9 -45.5v-76h912v41q0 16 -0.5 30t-0.5 18q0 13 -5 29t-17 29.5t-31.5 22.5t-49.5 9h-133v-97h-438v97zM955 310v-52q0 -23 0.5 -52t0.5 -58t-10.5 -47.5t-26 -30t-33 -16t-31.5 -4.5q-14 -1 -29.5 -0.5
t-29.5 0.5h-32l-45 128h-439l-44 -128h-29h-34q-20 0 -45 1q-25 0 -41 9.5t-25.5 23t-13.5 29.5t-4 30v167h911zM163 247q-12 0 -21 -8.5t-9 -21.5t9 -21.5t21 -8.5q13 0 22 8.5t9 21.5t-9 21.5t-22 8.5zM316 123q-8 -26 -14 -48q-5 -19 -10.5 -37t-7.5 -25t-3 -15t1 -14.5
t9.5 -10.5t21.5 -4h37h67h81h80h64h36q23 0 34 12t2 38q-5 13 -9.5 30.5t-9.5 34.5q-5 19 -11 39h-368zM336 498v228q0 11 2.5 23t10 21.5t20.5 15.5t34 6h188q31 0 51.5 -14.5t20.5 -52.5v-227h-327z" />
    <glyph glyph-name="uniE605" unicode="&#xe605;" 
d="M89 -157v914h650l199 -198v-716h-849zM742 692h-65v-163h-131v163h-261v-229h457v229zM840 39v130q0 41 -28.5 69.5t-69.5 28.5h-457q-40 0 -69 -28.5t-29 -69.5v-130v-131h653v131zM710 169h-392v33h392v-33zM710 71h-392v33h392v-33zM710 -26h-392v32h392v-32z" />
    <glyph glyph-name="uniE60F" unicode="&#xe60f;" 
d="M947 -23v-54q0 -22 -16 -38t-38 -16h-54h-646h-54q-23 0 -38.5 16t-15.5 38v754q0 15 7 27.5t19.5 19.5t27.5 7h108h538h108q11 0 21 -4.5t17 -11.5t11.5 -17t4.5 -21v-54v-646zM839 623h-108h-431h-107v-485h107h54v-53v-108h54h216h54v54v107h53h108v485zM300 354h431
v-108h-431v108zM300 515h431v-107h-431v107z" />
    <glyph glyph-name="uniE611" unicode="&#xe611;" 
d="M512 724l-412 -175l412 -176l412 176zM100 22l353 -146v409l-353 147v-410zM571 -124l353 146v410l-353 -147v-409z" />
    <glyph glyph-name="uniE612" unicode="&#xe612;" 
d="M492 256v391q-106 0 -195.5 -52t-142 -142.5t-52.5 -196.5t52.5 -196t142 -142t195.5 -52t195.5 52t141.5 142t52 196q0 93 -41 175zM896 543q-49 97 -142.5 156.5t-206.5 59.5v-391z" />
    <glyph glyph-name="uniE613" unicode="&#xe613;" 
d="M711 725q10 -1 18.5 -5.5t14.5 -11.5t10 -14.5t6 -13.5t2 -9q4 -51 -18.5 -100t-61 -87.5t-87 -73t-96 -59.5t-89 -43.5t-65.5 -27.5t-25 -9q82 25 153 55h-1q45 14 92.5 20.5t87.5 6.5t78 -3.5t67.5 -10t51.5 -12.5t33 -10l12 -4q-182 102 -355 43q44 23 80.5 48
t60.5 45.5t43.5 45.5t30 40.5t19 37.5t10.5 30t6 25q6 16 3 37.5t-10 40t-25.5 31.5t-45.5 13q-67 -1 -79 -49l-2 -10q3 8 9.5 15t25.5 14t46 5zM338 219q32 -50 93.5 -84t125.5 -46.5t124 -17t97.5 -3t37.5 2.5q-322 27 -449 121q-22 15 -29 27zM700 332q-48 0 -82.5 -33
t-34.5 -80q0 -23 9.5 -44t25 -36.5t37 -24.5t45.5 -9q42 0 74 26l-52 72l87 -23q7 19 7 39q0 18 -5.5 35.5t-16.5 31.5t-25.5 24.5t-32 16t-36.5 5.5zM709 234v75q8 0 16 -1.5t14.5 -4t12.5 -6.5t11 -8.5t9 -9t7 -8.5t5 -7t3 -5l1 -2zM781 -112h-536v12h524v113h-40v-74
h-536v601h471q5 3 11.5 11t11.5 14l4 7h-535v-672h50v-50h614v163h-39v-125z" />
    <glyph glyph-name="uniE614" unicode="&#xe614;" 
d="M853 634h-579q-10 0 -20.5 1.5t-19 4t-15.5 5.5q-4 2 -9 5h-1l10 5q22 11 55 11h579q9 0 16.5 4.5t12 12t4.5 16.5q0 6 -1.5 11t-4.5 9t-7.5 7t-9.5 5t-10 2h-579q-48 0 -84 -18q-9 -5 -16.5 -10t-13 -11t-9.5 -13t-6.5 -14.5t-2.5 -15.5v-699q0 -14 6 -26t16.5 -21.5
t25.5 -17.5q36 -18 84 -18h579q14 0 23.5 10t9.5 24v698q0 14 -9.5 23.5t-23.5 9.5zM819 -64h-545q-16 0 -30 3t-25 8l-5 3l-4 2h-1v626q30 -10 65 -10h545v-632zM546 81q-13 -13 -32 -13t-32 13l-1 1q-13 13 -13 31q0 9 -5.5 14.5t-14.5 5.5q-2 0 -5 -0.5t-5 -2.5l-4 -2
q-2 -2 -3 -4l-2 -6q-1 -2 -1 -5q0 -35 24 -59l1 -1q12 -12 28 -18.5t33 -6.5t33 6.5t28 18.5t18.5 27.5t6.5 32.5t-7 33q-3 8 -7.5 14.5t-10.5 12.5l-2 2q-5 4 -14 10l8 6l8 6q25 25 25 60v2q-1 18 -8 33.5t-20 27.5q-5 4 -11 8t-13.5 8t-12.5 6l-15 6h-1q-9 4 -15.5 7
t-13.5 8t-11.5 10t-7.5 12.5t-3 16.5t3.5 17.5t9.5 14.5h1q6 6 14.5 9.5t17.5 3.5q19 0 32 -13l1 -1q13 -13 13 -31q0 -8 6 -14t14 -6q5 0 10 2.5t7.5 7.5t2.5 10q0 17 -6.5 32t-17.5 27l-1 1q-12 12 -28 18.5t-33 6.5q-9 0 -17.5 -1.5t-16 -5t-14.5 -8t-13 -10.5
q-25 -25 -25 -60t25 -60q6 -7 14 -13q-7 -5 -14 -11q-21 -21 -24.5 -50.5t12.5 -54.5l1 -2q18 -27 62 -44h1q6 -3 10.5 -5t10.5 -4.5t11 -6t10 -6.5q2 -2 4 -4.5t3 -5t2 -4.5q2 -4 3 -8.5t1 -9.5q0 -19 -13 -32h-1zM547 225h-1q-13 -13 -32 -13t-32 13q-18 16 -13 41
q3 14 13 24t24 12q19 3 35 -8t19 -31v-2v-2v-1v-1q0 -6 -2 -12t-4.5 -11t-6.5 -9z" />
    <glyph glyph-name="uniE615" unicode="&#xe615;" 
d="M513 -113q-112 0 -207.5 55.5t-151 150.5t-55.5 207t55.5 207t151 150.5t207.5 55.5q90 0 167.5 -32.5t130.5 -88.5t83.5 -131.5t30.5 -160.5q0 -112 -55 -207t-150 -150.5t-207 -55.5zM293 520l-4 18l7 20l15 21q6 0 17 -4q6 -2 13 -1.5t12 2.5l6 1l-9 38
q-5 -1 -13 -4.5t-32 -19.5t-45.5 -37t-48 -60t-46.5 -86q0 -4 2.5 -17t1.5 -18q-2 -11 -2 -13v-11q1 -4 4.5 -11t7.5 -12l3 -5l17 -18q1 -24 11 -33q4 -5 2.5 -9.5t-4.5 -7.5l-4 -4q-1 -3 -2 -9t-2.5 -18.5t-0.5 -18.5q2 -14 5.5 -30t6.5 -21q2 -2 5 -4t6.5 -4t8 -4.5
t8.5 -4.5t7.5 -3.5t5.5 -2.5l2 -1q20 -13 20 -22q0 -10 13 -31q2 -3 10.5 -12t15 -18t6 -16.5t1 -11.5t5 -9t5.5 -11q6 -16 37 -22q1 2 2 5.5t3.5 13t4 16t2.5 15t-1 9.5l-15 30l-2 31q1 1 2 3.5t5 8t8 8.5q10 9 20 28q3 5 14.5 23t12.5 23q0 2 7 14t9 19.5t-4 17.5
q-6 7 -15.5 11t-23 6.5t-14.5 2.5q-54 16 -58 32q-2 6 -11 8t-19 0.5t-16 -5.5q-46 -23 -50 -11q-1 4 -3.5 7.5t-4.5 6.5l-6 6l-4 6t-2 6q-1 3 2.5 4t8 2.5t5.5 7.5q3 11 -4.5 15t-19.5 -2q-7 -3 -10.5 -1t-3 6.5t4.5 7.5l14 10q14 9 22.5 13t9.5 0q4 -10 35 -2
q5 3 12.5 2.5t9.5 -12.5q4 -19 21 -31q5 -4 5 0q0 2 2 12t2.5 17t-2.5 15l-11 20q4 0 10 0.5t18 5.5t16 14q6 12 11 41q1 5 1 10t-2.5 8t-7.5 2q-4 -1 -5 4q-1 11 10 14q4 1 8 1q8 -2 10 -6t0 -8l-3 -3q1 -2 2 -5t4.5 -10t6 -7t6.5 4q2 3 7 9.5t9.5 11.5t8 10.5t3 9.5
t-5.5 6q-7 3 -9.5 13.5t-10 19t-26.5 10.5q-44 3 -61 -6l4 -13q3 -3 3 -10.5t-25 -5.5zM397 630q-1 -11 -1 -16q-1 -13 14 -38t36 -47q19 -21 24 12q2 17 -1 25q-1 1 0 3.5t3 5t4.5 6.5t5.5 7.5t6 7.5t5.5 8t4 8t1.5 7q1 10 13 16t17 15q-1 2 -6.5 3.5t-14.5 2.5t-20 1
t-23.5 -1.5t-24.5 -4.5t-23.5 -8.5t-19.5 -12.5zM555 525q-3 0 -5.5 -1.5t-6.5 -5t-1 -7.5q8 -14 21 -18q5 -2 6 1q0 1 1 4.5t1.5 5.5t0.5 6t-1.5 6.5t-5.5 5t-10 3.5zM619 505q-6 6 -8.5 11.5t-2 8t1.5 10.5q0 3 3 11q3 16 -1 16q-19 -7 -22 -15q-1 0 -2 -1l-1 -5
q-1 -3 -2 -6.5t-1.5 -7.5t-1 -7.5t0.5 -6.5t3 -4q13 -10 31 -10q9 0 2 6zM684 622l-8 -37l-15 -38q-2 -11 5 -17t15 -7l8 -1q0 1 2 0.5t6 0.5t8.5 2.5t10 6t10.5 10t10 15.5t9 23q-19 19 -37.5 32t-23.5 10zM789 539q-2 2 -3 0h2h1q3 -3 7.5 -12t9 -19.5t8.5 -20.5t7 -17
l2 -7l-39 5q-1 1 -2 2.5t-4.5 6.5t-7.5 7.5t-9.5 4.5t-11.5 -2q-7 -3 -12 -10t-22 -9q-12 -2 -24 7t-21 16t-18 1q-6 -5 -12.5 -6.5t-10.5 -0.5t-7.5 -1.5t-4.5 -9.5q-2 -10 -1.5 -19t2.5 -15l2 -7h-38q-8 -4 -11.5 -11t-4 -14t0 -14t1.5 -11l1 -5q2 0 5 -1t11.5 -3
t16.5 -2.5t17.5 0.5t16.5 5.5t13.5 10t11 11t8 10t5.5 7.5l2 3l45 -56q8 -4 13.5 2.5t7.5 15.5l3 8q-9 14 -9 25t4 15l5 4l44 -19l29 -35l-5 -24l-54 -20q0 -2 -1 -6t-7 -11.5t-14 -11t-24.5 0t-36.5 17.5l-58 6q-55 1 -55 -20q0 -15 -3.5 -29.5t-1.5 -38.5q-1 -4 -2 -11.5
t-2 -25.5t1.5 -32t11.5 -25t24 -10q23 2 32 4.5t20 8t32 11.5q24 10 36.5 4t15.5 -19l4 -12l-4 -50l-11 -29q-10 -18 9 -37q3 2 7.5 6t18.5 17t26.5 28t28.5 37.5t28 46.5t21.5 55t12.5 62q-9 0 -18 5t-13 10l-4 5l-29 34h49q7 -3 15 -6q10 37 -5 90t-38 90t-36 40z" />
    <glyph glyph-name="uniE616" unicode="&#xe616;" 
d="M506 -114q-116 0 -214.5 57.5t-155.5 155.5t-57 214t57 214.5t155.5 155.5t214.5 57t214 -57t155.5 -155.5t57.5 -214.5q0 -164 -111 -286q-107 -118 -265 -137q-26 -3 -51 -4zM815 104q27 41 43.5 87t19.5 96h-213q-3 -78 -14 -145q87 -12 164 -38zM400 287
q2 -75 14 -138l30 2q15 1 30.5 1.5t31.5 0.5q44 0 91 -4q12 63 14 138h-211zM611 340q-2 74 -14 138q-15 -2 -30 -3t-30.5 -1.5t-30.5 -0.5q-23 0 -46 1.5t-46 3.5q-12 -64 -14 -138h211zM778 58q-65 21 -137 32q-9 -37 -19.5 -71.5t-24.5 -66.5q106 26 181 106zM480 -59
q19 -1 26 -1h4h3h3q2 0 4.5 0.5t3.5 0.5h4h4q17 35 30.5 74.5t23.5 81.5q-42 4 -80 4t-81 -4q21 -85 55 -156zM414 -48q-26 64 -43 138q-36 -6 -70.5 -13.5t-67.5 -18.5q24 -25 52.5 -46t61 -36.5t67.5 -23.5zM360 142q-11 67 -13 145h-214q7 -100 63 -183q77 26 164 38z
M196 522q-27 -40 -43 -86t-20 -96h214q1 38 4 74t9 70q-87 13 -164 38zM233 568q33 -10 67.5 -18t70.5 -13q3 15 6.5 29t8.5 28l8 28q5 14 10 27l10 26q-106 -27 -181 -107zM532 685q-2 1 -5 1h-5q-1 0 -3.5 0.5t-4.5 0.5h-4h-4q-7 0 -26 -2q-34 -70 -55 -155q21 -2 41 -3
t40 -1q38 0 80 4q-10 42 -23.5 81t-30.5 74zM597 675q27 -64 44 -138q72 10 137 31q-36 39 -82 66.5t-99 40.5zM651 484q11 -66 14 -144h213q-3 50 -19.5 96t-43.5 86l-26 -8q-13 -4 -26.5 -7.5t-27 -6.5t-27.5 -6t-28 -5.5t-29 -4.5z" />
    <glyph glyph-name="uniE617" unicode="&#xe617;" 
d="M202 270l-102 -153q12 5 31.5 12t72.5 17.5t97 7.5q92 -6 200 -72q3 -2 4 -2q4 2 11 6.5t28.5 16.5t43.5 21.5t52.5 19.5t58.5 14q21 3 42.5 2t43 -4t40.5 -7.5t35 -9.5t28 -9t18 -7l7 -3l-95 143l146 -194q-3 1 -8.5 3t-23 7t-35 9t-43 8t-49 5.5t-50 0.5t-49.5 -5
q-57 -13 -105.5 -34t-68.5 -36l-20 -16q-5 4 -14 9t-35.5 18.5t-53.5 24.5t-64.5 21t-70.5 13q-22 1 -44 0t-44 -3.5t-42 -6t-37.5 -7.5t-30 -7t-19.5 -5l-8 -2zM767 321q-3 1 -7.5 3.5t-20 7.5t-31.5 7.5t-39 3t-45 -4.5t-42 -12.5t-32.5 -14.5t-22.5 -13.5t-14 -10.5
l-5 -3q-4 3 -12.5 9.5t-38 20t-64.5 21.5q-76 15 -143 -17l-126 -184q6 4 17.5 10.5t56 16t100.5 7.5q48 -2 100.5 -19t81.5 -33l28 -16q12 8 32 19t75.5 31t103.5 21q20 1 38.5 0t33.5 -2.5t28.5 -4t23.5 -5.5t18.5 -6t14 -6t9.5 -5l6 -3l2 -2zM279 541q13 0 25.5 -10.5
t22.5 -22.5t30 -22t49 -10t80 13q47 14 63 -7q14 -17 -12 -33q-9 -6 -22 -10q-68 -11 -92.5 -30.5t-2.5 -43t87 -46.5q35 -17 24 -35q-10 -15 -31 -9q-3 1 -5 2q-16 -6 -43.5 -1t-51.5 13t-51.5 9.5t-42.5 -11.5q-10 -7 -20 -20t-18.5 -25.5t-18 -25.5t-18.5 -21
t-18.5 -10.5t-21 4.5t-22.5 25q1 19 30 52.5t56 57.5t28 24q2 2 5.5 6.5t11 16.5t11.5 23t1.5 24.5t-13.5 22.5q-37 32 -46 67q-9 33 26 33zM679 463q19 9 32 17t18 12t12 10t11 8q9 7 22 5.5t17 -12t-10 -32.5q-6 -9 -15.5 -17.5t-18.5 -15.5t-18.5 -14t-16.5 -13
t-11 -12.5t-2.5 -13.5t7.5 -15q19 -19 52.5 -31.5t51.5 -26.5q5 -26 -28 -29q-31 -3 -80 16q-16 6 -29 7t-22.5 -1.5t-21.5 -9.5t-23.5 -15t-31 -20t-40.5 -22q-75 -36 -109 -16q-19 11 -5 26l2 2q9 8 37.5 25.5t57 36.5t40.5 32q3 4 10 11.5t10 11.5t7 11.5t4 14t-2 16.5
t-8 22q-8 10 -18.5 22t-19 20.5t-16.5 17.5t-12 16.5t-3 15.5t8 15q10 11 30.5 -2t41.5 -34t47 -34.5t43 -4.5zM361 547q0 17 -13 28.5t-32 11.5q-18 0 -31 -12t-13 -28.5t13 -28.5t31 -12q31 0 42 26q2 7 3 14v1zM616 541q0 16 -13 28t-31 12q-19 0 -32 -12t-13 -29
q0 -11 6 -20t16.5 -14.5t22 -5.5t22 5t16.5 14.5t6 20.5v1zM191 247q29 41 93 93q49 61 36 84q11 -10 5.5 -26.5t-17 -33t-30.5 -35.5t-36 -33.5t-32 -28.5t-19 -20zM481 276q39 10 86 60q12 13 19.5 30t8 30.5t-4.5 23.5q8 -17 -3 -40.5t-35.5 -46t-40.5 -35.5t-30 -22z
" />
    <glyph glyph-name="uniE618" unicode="&#xe618;" 
d="M536 556l-5 -8q-3 -4 -10.5 -13t-12.5 -12h-254v-619h538v550h40v-590h-615v692h319zM521 381q-73 0 -125 -52t-52 -124.5t52 -124.5t125 -52q48 0 88.5 23.5t64 64.5t23.5 88q0 36 -14 69t-37.5 56.5t-56 37.5t-68.5 14zM523 72q-55 0 -94.5 39.5t-39.5 95.5t39.5 95.5
t95 39.5t95 -39.5t39.5 -95.5q0 -68 -55 -108q-36 -26 -80 -27zM521 313q-18 0 -34.5 -5.5t-30 -15.5t-23.5 -23.5t-15.5 -30t-5.5 -34.5q0 -45 32 -77t77 -32q22 0 42 9t35 23.5t23.5 34.5t8.5 42q0 46 -32 77.5t-77 31.5zM559 172h-81v13h81v-13zM559 202h-81v13h81v-13z
M559 228h-81v13h81v-13zM500 418q7 12 20.5 31.5t55.5 72t84 93.5t101.5 79.5t113.5 47.5q-10 -8 -27.5 -21t-63.5 -52t-83.5 -76t-73.5 -86t-49 -89h-78z" />
    <glyph glyph-name="uniE619" unicode="&#xe619;" 
d="M883 -71h-742q-39 0 -66 27t-27 66v559q0 38 27 65.5t66 27.5h742q39 0 66 -27.5t27 -65.5v-559q0 -25 -12.5 -46.5t-34 -34t-46.5 -12.5zM481 457q0 12 -9 21.5t-22 9.5h-309q-13 0 -22 -9.5t-9 -21.5v-311q0 -13 9 -22t22 -9h309q13 0 22 9t9 22v311zM883 457h-278
q-5 0 -10 -2t-8.5 -4.5t-6.5 -6.5t-4.5 -8.5t-1.5 -10.5q0 -12 9 -21.5t22 -9.5h278q4 0 8 1.5t7.5 3.5t6.5 4.5t5 6t3 7.5t1 8q0 6 -1.5 10.5t-4.5 8.5t-6.5 6.5t-8.5 4.5t-10 2zM883 332h-278q-9 0 -16 -4t-11 -11t-4 -16q0 -13 9 -22t22 -9h278q9 0 16 4.5t11 11.5t4 15
q0 13 -9 22t-22 9zM883 208h-278q-13 0 -22 -9t-9 -22t9 -22t22 -9h278q9 0 16 4t11 11.5t4 15.5q0 5 -1.5 10t-4.5 8.5t-6.5 6.5t-8.5 4.5t-10 1.5z" />
    <glyph glyph-name="uniE61A" unicode="&#xe61a;" 
d="M258 152v-1q0 -10 6.5 -16.5t15.5 -6.5h459q6 0 11.5 3t8.5 8.5t3 11.5v1q0 9 -6.5 15.5t-16.5 6.5h-459q-5 0 -9 -1.5t-7 -4.5t-4.5 -7t-1.5 -9zM231 448q4 -4 9 -6t10 -1l649 119q5 1 9.5 5t6.5 9.5t1 11.5l-24 132q-1 9 -9 14t-17 4l-739 -136q-13 -2 -17 -15t6 -22z
M705 673l61 11q16 3 24 -11l36 -62q6 -9 1.5 -19.5t-15.5 -13.5l-62 -13q-15 -3 -23 11l-37 64q-3 5 -3.5 10.5t2 10t6.5 8t10 4.5zM510 637l61 12q5 0 9.5 -1t8 -3.5t5.5 -6.5l38 -64q5 -10 0.5 -20.5t-16.5 -12.5l-61 -12h-5q-2 0 -4 0.5t-4 1.5t-4 2.5t-3.5 3t-2.5 3.5
l-38 64q-5 10 -0.5 20.5t16.5 12.5zM314 602l62 11q15 3 23 -11l37 -64q6 -10 1 -20.5t-16 -12.5l-61 -11q-7 -1 -13.5 2t-10.5 9l-37 64q-2 4 -2.5 8.5t0.5 8t3.5 7t6 6t7.5 3.5zM895 413h-640q-4 0 -8.5 -1.5t-7.5 -4.5l-144 -144q-2 -2 -3.5 -5t-2.5 -5.5t-1 -5.5v-316
q0 -4 2 -8t5 -7t7 -5t9 -2h784q6 0 11 3t8 8t3 11v460q0 9 -6.5 15.5t-15.5 6.5zM807 288q0 -6 -2.5 -11t-8 -8t-11.5 -3h-230q-6 0 -11 -3t-8 -8t-3 -11v-2q0 -6 3 -11t8 -8t11 -3h230q6 0 11.5 -3t8 -8t2.5 -11v-185q0 -3 -0.5 -6t-2 -5t-3.5 -4.5t-4.5 -3.5t-5.5 -2
t-6 -1h-551q-9 0 -15.5 6.5t-6.5 15.5v185q0 9 6.5 15.5t15.5 6.5h208q6 0 11 3t8 8t3 11v2q0 9 -6.5 15.5t-15.5 6.5h-208q-3 0 -6 0.5t-5.5 2t-4.5 3.5t-3.5 4.5t-2 5.5t-0.5 6v1q0 6 3 11.5t8 8.5t11 3h551q6 0 11.5 -3t8 -8.5t2.5 -11.5v-1zM739 83h-459q-6 0 -11 -3
t-8 -8.5t-3 -11.5v-1q0 -9 6.5 -15.5t15.5 -6.5h459q3 0 6 0.5t5.5 2t4.5 3.5t3.5 4.5t2.5 5.5t1 6v1q0 18 -18 22q-3 0 -5 1zM131 354l53 53q7 6 7 15.5t-7 15.5l-53 53q-7 6 -15.5 6.5t-15 -6t-6.5 -16.5v-105q0 -15 13.5 -21t23.5 5z" />
    <glyph glyph-name="uniE61B" unicode="&#xe61b;" 
d="M202 304l-106 -158q12 5 32.5 12.5t75 18.5t99.5 8q29 -2 61 -10.5t57.5 -19.5t47 -22t33.5 -18l12 -7q11 7 30 18.5t72 33.5t98 28.5t100.5 -3.5t88 -22t32.5 -13l-98 147l151 -200q-7 2 -17 5.5t-43.5 12t-62.5 11.5t-72 5.5t-72 -6.5q-59 -12 -109 -34.5t-70.5 -37
t-20.5 -16.5q-5 4 -14 9t-37 19.5t-55.5 25.5t-66 21.5t-73.5 12.5q-28 2 -62.5 -0.5t-63 -7.5t-53 -10.5t-38.5 -8.5l-14 -4zM784 357q-3 1 -8 3.5t-20.5 7.5t-32 8t-40.5 3t-46.5 -5t-43 -12.5t-34 -14.5t-23.5 -14t-14 -11l-5 -4q-4 4 -12.5 10.5t-39.5 20.5t-67 22
q-41 7 -74 3t-53 -12l-20 -9l-130 -189q6 4 18 10.5t58 16.5t103 8q31 -1 65 -8.5t60 -17.5t47.5 -20.5t33.5 -16.5l11 -7l13 7q7 5 31.5 17.5t49 22t59 17.5t65.5 9q21 1 40 0t34 -2.5t29 -4.5t24.5 -6t19 -6t14.5 -6l10 -5l6 -3l2 -2zM280 584q15 -1 27.5 -11t22.5 -22.5
t31 -23t51 -11t83 13.5q48 14 64 -7q14 -17 -11 -34q-10 -6 -23 -10q-71 -12 -96.5 -32t-2.5 -44t90 -49q36 -17 25 -35q-10 -16 -31 -10l-7 2q-16 -5 -34.5 -2t-41.5 8.5t-43.5 11t-41 4.5t-34.5 -12q-12 -9 -27.5 -30t-27 -38t-25.5 -29t-29.5 -7.5t-31.5 29.5
q1 13 13.5 31.5t29.5 36.5t34 34.5t29 25.5l12 10q2 3 5.5 7.5t11.5 17t11.5 24t1.5 25t-13 23.5q-39 32 -48 69q-9 34 26 34zM694 503q24 13 37.5 21t24.5 17.5t13 10.5q5 4 12.5 5.5t14.5 -1t11 -7.5t2.5 -15t-10.5 -22q-7 -11 -19 -21.5t-23 -18t-21.5 -16t-16.5 -15.5
t-6 -15.5t9 -17.5q19 -20 53.5 -33t53.5 -27q5 -27 -30 -30q-32 -3 -82 16q-12 4 -22.5 6t-19 1.5t-17 -3.5t-16 -7.5t-18.5 -11.5t-21 -14t-26 -16t-33 -17q-77 -37 -112 -17q-20 11 -6 26l2 2q8 7 66 43t73 55q3 2 13 13t12 15t6 14.5t1 21.5t-10 25q-8 11 -18.5 23
t-19.5 20.5t-17.5 18.5t-12.5 17.5t-3 16t8 15.5q11 9 24 1.5t32.5 -23t37.5 -31.5t38.5 -24.5t35.5 -0.5zM459 590q0 -18 -14 -30.5t-33 -12.5q-13 0 -23.5 6t-17 15.5t-6.5 21.5q0 18 13.5 30.5t33 12.5t33.5 -12.5t14 -30.5zM628 584q0 6 -2 12.5t-6.5 11.5t-10 9
t-12.5 6t-14 2q-19 0 -32.5 -12.5t-13.5 -29.5t13.5 -29.5t32.5 -12.5q30 0 42 26q3 8 3 16v1zM190 280q30 42 96 97q51 62 37 86q14 -16 -1.5 -44t-41.5 -53t-55.5 -51.5t-34.5 -34.5zM489 310q41 11 89 62q19 21 25.5 47.5t-2.5 39.5q9 -18 -2.5 -42t-37 -47.5t-42 -36.5
t-30.5 -23z" />
    <glyph glyph-name="uniE61C" unicode="&#xe61c;" 
d="M860 -133h-696q-48 0 -82 33.5t-34 81.5v520q0 24 9 45t25 36.5t37.5 25t44.5 9.5h174v57q0 24 17 41t41 17h232q24 0 41 -17t17 -41v-57h174q19 0 36.5 -6t32 -16.5t25 -25t16.5 -32t6 -36.5v-520q0 -48 -34 -81.5t-82 -33.5zM628 647q0 12 -8.5 20t-20.5 8h-174
q-12 0 -20.5 -8t-8.5 -20v-29h29h174h29v29zM918 502q0 12 -4.5 22.5t-12.5 18.5t-18.5 12.5t-22.5 4.5h-696q-9 0 -18 -3t-16 -8.5t-12.5 -12.5t-8.5 -15.5t-3 -18.5v-144h812v144zM454 271q0 -24 17 -41t41 -17q16 0 29 8t21 21t8 29q0 15 -8 29h-100q-8 -14 -8 -29z
M918 300h-294q4 -16 4 -29q0 -23 -9 -44.5t-24.5 -37t-37 -24.5t-45.5 -9q-48 0 -82 33.5t-34 81.5q0 5 0.5 10t1.5 9.5t2 9.5h-294v-318q0 -15 8 -28.5t21 -21t29 -7.5h696q24 0 41 16.5t17 40.5v318z" />
    <glyph glyph-name="uniE61D" unicode="&#xe61d;" 
d="M784 -131h-544q-45 0 -76.5 31.5t-31.5 76.5v541q0 29 14.5 54t39.5 39.5t54 14.5h82v54h73q18 25 49 39.5t68 14.5t68 -14.5t49 -39.5h73v-54h82q45 0 76.5 -31.5t31.5 -76.5v-541q0 -45 -31.5 -76.5t-76.5 -31.5zM648 626h-61q0 23 -22 38.5t-53 15.5t-53 -15.5
t-22 -38.5h-61v-108h272v108zM838 518q0 22 -16 38t-38 16h-82v-108h-380v108h-82q-11 0 -21 -4.5t-17 -11.5t-11.5 -17t-4.5 -21v-541q0 -11 4.5 -21t11.5 -17.5t17 -11.5t21 -4h544q22 0 38 15.5t16 38.5v541zM702 31h-380q-11 0 -19 8t-8 19q0 4 1 8.5t3.5 7.5t6 5.5
t7.5 4t9 1.5h380q11 0 19 -8t8 -19q0 -6 -2 -11t-5.5 -8.5t-8.5 -5.5t-11 -2zM702 166h-380q-11 0 -19 8t-8 19q0 8 3.5 14t10 9.5t13.5 3.5h380q11 0 19 -8t8 -19q0 -4 -1 -8t-3.5 -7.5t-6 -6t-7.5 -4t-9 -1.5zM702 301h-380q-11 0 -19 8t-8 19.5t8 19.5t19 8h380
q7 0 13.5 -4t10 -10t3.5 -13q0 -12 -8 -20t-19 -8z" />
    <glyph glyph-name="uniE61E" unicode="&#xe61e;" 
d="M520 -129q-114 0 -211 56.5t-153 153.5t-56 211t56 211t153 153t211 56q69 0 133 -21t115.5 -60t90.5 -90.5t60.5 -116t21.5 -132.5q0 -114 -56.5 -211t-153.5 -153.5t-211 -56.5zM520 660q-100 0 -184.5 -49.5t-134 -134t-49.5 -184.5t49.5 -185t134 -134t184.5 -49
t185 49t134 134t49 185t-49 184.5t-134 134t-185 49.5zM783 266v52h52v-52h-52zM709 76l-37 38l37 37l37 -37zM680 495l36 36l37 -36l-37 -37zM494 29h52v-53h-52v53zM520 265h-237q-10 0 -18 7.5t-8 18.5q0 7 3.5 13t9.5 9.5t13 3.5h211v264q0 11 7.5 18.5t18.5 7.5
q5 0 10 -2t8.5 -5.5t5.5 -8.5t2 -10v-290q0 -3 -0.5 -6t-1.5 -5l-4 -6q-1 -2 -4 -4l-4 -2q-3 -2 -6 -2.5t-6 -0.5zM280 494l37 37l37 -37l-37 -38zM349 112l-36 -36l-37 36l37 37z" />
    <glyph glyph-name="uniE61F" unicode="&#xe61f;" 
d="M901 115q0 5 -2 9.5t-5 8.5t-7.5 8t-9.5 7.5t-9 5.5l-10 6q-4 2 -7.5 3.5t-5.5 2.5h-2l-58 108h45v26l27 1v-27h29l-2 27l26 1q7 0 13.5 -3.5t10 -9t3.5 -13.5v-136q0 -13 -9 -19t-18 -6h-9zM707 108l-41 91q-11 24 -32 68.5t-42.5 91t-41 90t-32.5 71.5l-13 27
q-9 22 -17.5 54.5t-10 51.5t1.5 23q2 0 6 -1.5t25.5 -26t52.5 -70.5l243 -411zM473 508l-28 -57l-113 59l27 55q3 7 8.5 11t10.5 4t9.5 -1t6.5 -3l3 -1l64 -34q11 -5 14.5 -13.5t0.5 -13.5zM250 77l-122 46l188 356l121 -54zM95 120q-4 3 -7.5 5.5t-6.5 6.5t-5.5 8.5t-4 11
t-1.5 13.5v110v26l28 -1l-1 -26h28v27l26 -1v-26h27zM187 5l-61 27l-2 66l111 -41zM166 -15l-41 -30l1 49zM421 301v-27h28v27h26v-54h28v54h26v-27h28v27h28v-54h25l55 -133h-352l86 187h22zM880 44q-16 -61 36 -83l9 -3l-40 -5q-112 -3 -148 93q-8 20 -12 42l90 52
q4 -1 9 -3t19.5 -9.5t21.5 -18t15 -27.5t0 -38z" />
    <glyph glyph-name="uniE620" unicode="&#xe620;" 
d="M738 -41q0 57 -21 117q-6 11 -12 18.5t-15 14.5t-13 10t-17.5 10.5t-17.5 9.5l3 40q-4 2 -10 6t-18.5 17.5t-18.5 29.5q-8 3 -12.5 5.5t-7 6t-3 4.5t-1.5 7t-1 7l1 35q4 18 12 18q2 0 4.5 0.5t6.5 3.5t2 9q-2 46 1 74q5 52 35 57q21 4 22 4q3 1 5.5 2t4 2t5.5 2t10 1
l38 8q6 0 12 -4t10.5 -9.5t9 -10t7.5 -5t4.5 0t2 1t4 0.5t9.5 -1q9 -1 14 -6.5t7.5 -13t3 -14t0.5 -15t1 -10.5q3 -37 0 -66q-1 -6 1 -8.5t3 -2.5h2q5 0 8 -3t5 -7.5t3.5 -10.5t2 -11.5t1 -10t0.5 -7.5v-3q-3 -11 -6 -15t-18 -13q-5 -16 -19 -30t-25 -20l-12 -7
q-1 -26 -1 -33l2 -6q1 -3 6 -11.5t12 -15t21.5 -13t32.5 -9.5q15 -2 27.5 -5t21.5 -6t17 -7t13.5 -7t10.5 -7.5t8 -7.5l6 -6l6 -6q18 -18 18 -77h-214zM528 322q-7 -20 -24 -40t-30 -29l-13 -10q0 -38 -1 -46v-1q2 -50 84 -62q30 -5 52.5 -11t38.5 -15.5t22.5 -13.5
t18.5 -16l11 -12q9 -9 14.5 -37.5t6.5 -46t1 -24.5h-633q-2 89 18 108q2 1 14 15t21 20.5t35 16.5t63 16q29 4 49.5 13t29.5 18t13 18t4.5 14t1.5 5l-3 50l-6 3q-4 2 -14.5 8.5t-19 13.5t-17.5 19t-14 25q-10 4 -16 7t-9 8t-4 6.5t-2 9t-2 9.5l-2 42q2 28 15 27q2 0 4 0.5
t5.5 4.5t1.5 11q-1 20 -1 52.5t2 45.5q2 20 15 44.5t38 29.5q8 1 36 5q3 0 5.5 1.5t4.5 2.5t4.5 2t7 2t10.5 1l50 10q8 0 16 -6t13.5 -13.5t11.5 -14t10 -7t16 1.5t26 0q11 -2 18 -9t10 -17t4.5 -18t1.5 -19v-14q7 -62 2 -84q-2 -7 0 -10.5t5 -3.5h3q12 0 16.5 -17.5
t3.5 -34.5l-2 -17q0 -4 -1.5 -7t-3.5 -5.5t-4.5 -4.5t-6 -4.5t-6.5 -4.5t-8.5 -5t-10.5 -6z" />
    <glyph glyph-name="uniE621" unicode="&#xe621;" 
d="M878 117l12 41l-218 77l-13 -41zM643 163q0 -1 -0.5 -2.5t-1.5 -6.5t-1.5 -8.5t-1.5 -7t-1 -4.5q-2 -5 -3 -7t-2 -2t-3 1t-3 1q-12 4 -32 11.5t-66.5 33.5t-75.5 55l-32 31q-1 1 -3 3.5t-7.5 10t-11.5 15.5t-14 19.5t-15 23t-14 25t-12.5 26t-9 26.5t-4.5 26l-2 4l6 2
l35 14l-114 209l-21 -10q-7 -1 -17 -2.5t-35.5 -10t-43 -21t-28.5 -37t-2 -55.5l27 -80q46 -82 115 -163.5t134 -140.5t124 -106t94 -70.5t36 -23.5l67 -31q29 -9 55.5 1t42 27.5t28.5 43t16.5 35.5t5.5 17l13 49zM399 466l33 12l-109 216l-37 -18z" />
    <glyph glyph-name="uniE622" unicode="&#xe622;" 
d="M162 -125v850h530l23 -22l97 -93v-1l46 -45v-689h-696zM603 634h-349v-667h511v528h-162v139zM672 681v-117h140zM324 128h372v-92h-372v92zM324 266h372v-92h-372v92zM324 403h372v-92h-372v92zM385.5 471q-23.5 0 -40 16.5t-16.5 39.5q0 16 7.5 28.5t20.5 20t29 7.5
q23 0 40 -16t17 -39.5t-17 -40t-40.5 -16.5zM858 725v-6l-1 6h1z" />
    <glyph glyph-name="uniE623" unicode="&#xe623;" 
d="M902 -83v2l1 1v2v756v2q0 1 -1 1v1v1l-1 1v1l-4 4l-1 1h-1h-2v1h-1h-2h-756h-2q-1 0 -1 -1h-1h-2v-1h-1l-2 -2l-2 -2l-1 -1v-1v-1v-1l-1 -1v-1v-1v-756v-2h1v-1v-1q0 -1 1 -2v0v-1l4 -4h1v0l1 -1h2l1 -1h2h756h1h1l1 1h2l1 1h1l4 4v1v0zM240 368v88h544v-88h-544z
M784 341v-88h-544v88h544zM240 226h544v-88h-544v88zM784 482h-544v90h544v-90zM240 111h544v-83h-544v83zM791 598h-558l-67 67h692zM214 580v-559l-66 -67v692zM233 2h558l67 -66h-692zM810 21v559l66 66v-692z" />
    <glyph glyph-name="uniE624" unicode="&#xe624;" 
d="M906 477q-2 -1 -5 -1q-11 0 -14 10q-13 33 -32.5 61.5t-39 47.5t-42.5 35t-41 25t-36 16t-24.5 8.5t-9.5 2.5q-6 1 -9.5 6t-2.5 12q1 4 3.5 7t6.5 4t8 1q5 -1 12.5 -3t27.5 -9.5t39 -17t44.5 -27t46.5 -38.5t42 -52.5t35 -67.5q3 -6 0 -12t-9 -8zM879 300
q0 -99 -49.5 -183.5t-133.5 -133.5t-183.5 -49t-184 49t-133.5 133.5t-49 183.5t49 183.5t133.5 133.5t183.5 49q75 0 142.5 -29t117 -78t78.5 -117t29 -142zM512 636q-91 0 -168.5 -45t-122.5 -122.5t-45 -168.5t45 -168.5t122.5 -122.5t168.5 -45t168.5 45t122.5 122.5
t45 168.5t-45 168.5t-122.5 122.5t-168.5 45zM627 148q-6 1 -11 4l-127 127v235q0 4 1.5 6.5t3.5 4.5t4.5 3.5t6.5 1.5q6 0 10.5 -4.5t4.5 -11.5v-222l118 -118q11 -11 0 -22q-5 -4 -11 -4zM362 682q-60 -13 -121 -59q-72 -55 -104 -137q-3 -10 -14 -10q-3 0 -5 1
q-4 1 -6.5 4.5t-3.5 7.5t1 8q14 36 35 67.5t42 52.5t46.5 38.5t44.5 27t39 17t27.5 9.5t12.5 3q6 1 11.5 -2.5t6.5 -10t-2.5 -11.5t-9.5 -6zM257 -25q4 5 10.5 5t11.5 -5q10 -11 0 -21l-61 -61q-5 -5 -11 -5q-7 0 -11 5q-2 2 -3 4.5t-1 5.5t1 6t3 5zM767 -25l61 -61
q2 -2 3 -4t1.5 -4.5t0 -4.5t-1.5 -4.5t-3 -3.5q-4 -5 -10.5 -5t-10.5 5l-61 61q-11 10 -0.5 21t21.5 0z" />
    <glyph glyph-name="uniE625" unicode="&#xe625;" 
d="M119 132h112v-281h-112v281zM344 244h112v-393h-112v393zM568 300h112v-449h-112v449zM793 468h112v-617h-112v617zM736 749l57 -56l-225 -225l-112 113l-337 -337l56 -56l281 280l112 -112l281 281l56 -56v168h-169z" />
    <glyph glyph-name="uniE626" unicode="&#xe626;" 
d="M539 199h-1q-46 -22 -100 -44.5t-86 -34.5l-31 -11v491q12 -4 34 -12t78.5 -31.5t102.5 -44.5l3 -3v-1v-309zM239 -137q-23 0 -39 16t-16 39v710h110v-710q0 -8 -2 -15t-5.5 -13t-9 -11t-11.5 -8.5t-13 -5.5t-14 -2zM184 682q0 11 4.5 21.5t12 17.5t17.5 11.5t21 4.5
q9 0 17 -3t15 -8t12 -11.5t8 -15t3 -17.5v-27h-110v27zM539 136q-6 -3 -5 9q1 5 5 26v-35zM594 160v263q144 -74 241 -172l5 -6q-125 -34 -246 -85z" />
    <glyph glyph-name="uniE627" unicode="&#xe627;" 
d="M864 -66h-704q-7 0 -15.5 1.5t-16.5 4.5t-16.5 7t-15.5 9t-12.5 11t-8.5 12.5t-3 13.5q0 24 17 41t41 17h764q24 0 41 -17t17 -41q0 -23 -30.5 -41t-57.5 -18zM600 -7h-176q-12 0 -20.5 -4.5t-8.5 -10.5t8.5 -10.5t20.5 -4.5h176q6 0 11.5 1.5t9.5 3.5t6 4.5t2 5.5
q0 6 -8.5 10.5t-20.5 4.5zM398 364l54 -54l174 174q9 9 21 9t21 -9l41 -41q9 -8 9 -20.5t-9 -20.5l-227 -228q-17 -16 -36 -4q-4 -1 -7.5 -1t-7 1t-7 3t-6.5 5l-103 103q-9 9 -9 21t9 20l41 42q9 8 21 8t21 -8zM806 578h-588v-468h-88v58h6q-3 8 -4.5 15t-1.5 15v380
q0 24 12 44t32 32t44 12h588q36 0 62 -26t26 -62v-380q0 -15 -6 -30h6v-58h-88v468z" />
    <glyph glyph-name="uniE628" unicode="&#xe628;" 
d="M539 4v-93h115v-57h-115h-116h-115v57h115v93q-57 12 -103 45.5t-72.5 82.5t-26.5 105v136h9q13 28 35 28q7 0 13.5 -3.5t11.5 -10t9 -14.5h9v-116q0 -71 50.5 -122t122.5 -51t122.5 51t50.5 122v116h9q13 28 34.5 28t34.5 -28h8v-136q0 -84 -57 -149.5t-144 -83.5z
M481 142q-19 0 -36.5 5.5t-31.5 16.5t-25 25t-16.5 31.5t-5.5 36.5v346q0 48 33.5 82t81.5 34q31 0 57.5 -15.5t42 -42t15.5 -58.5v-346q0 -48 -33.5 -81.5t-81.5 -33.5z" />
    <glyph glyph-name="uniE629" unicode="&#xe629;" 
d="M547 -131h-101l-339 238v68h67l272 -204h135l271 204h34v-68zM446 39l-339 238v69h67l272 -205h135l271 205h34v-69l-339 -238h-101zM107 482l339 272h67l373 -272v-27l-373 -281z" />
    <glyph glyph-name="uniE62A" unicode="&#xe62a;" 
d="M885 -130h-755q-22 0 -38 16t-16 38v755q0 22 16 38t38 16h540l-108 -108h-378v-647h647v378l108 107v-539q0 -22 -15.5 -38t-38.5 -16zM292 86v162l485 485h54l108 -108v-54l-485 -485h-162zM535 275l296 296l-54 54l-296 -296zM400 248l-54 -54v-54h54l54 54z" />
    <glyph glyph-name="uniE62B" unicode="&#xe62b;" 
d="M896 -110h-768q-22 0 -38.5 16t-16.5 39v628q0 23 16.5 39t38.5 16h28v-27q0 -23 16 -39t38 -16h28q23 0 39 16t16 39v27h55v-27q0 -23 16 -39t38 -16h28q9 0 17 2.5t15 8t12 12t8 15t3 17.5v27h54v-27q0 -23 16.5 -39t38.5 -16h28q15 0 27.5 7.5t19.5 20t7 27.5v27h55
v-27q0 -23 16 -39t39 -16h28q22 0 38 16t16 39v27h28q11 0 21 -4.5t17.5 -11.5t12 -17.5t4.5 -21.5v-628q0 -23 -16.5 -39t-38.5 -16zM731 382h-438q-8 0 -14 -3.5t-10 -10t-4 -13.5q0 -6 2.5 -11t6 -8.5t8.5 -6t11 -2.5h438q8 0 14 4t10 10t4 14q0 11 -8 19t-20 8zM731 245
h-438q-8 0 -14 -3.5t-10 -10t-4 -13.5t4 -13.5t10 -10t14 -3.5h438q12 0 20 8t8 19q0 7 -4 13.5t-10 10t-14 3.5zM731 109h-438q-12 0 -20 -8t-8 -19.5t8 -19.5t20 -8h438q12 0 20 8t8 19.5t-8 19.5t-20 8zM800 573q-11 0 -20.5 5.5t-15 15t-5.5 20.5v55q0 27 25 38l16 3
q17 0 29 -12t12 -29v-55q0 -27 -26 -38q-8 -3 -15 -3zM608 573q-17 0 -29 12t-12 29v55q0 17 12 29t29 12q5 0 9.5 -1t8.5 -3t7.5 -5t6.5 -6.5t5 -7.5t3 -8.5t1 -9.5v-55q0 -4 -1 -9t-3 -9t-5 -7.5t-6.5 -6t-7.5 -5t-8.5 -3.5t-9.5 -1zM416 573q-11 0 -20.5 5.5t-15 15
t-5.5 20.5v55q0 8 3 15.5t8.5 13t13.5 9t16 3.5q7 0 13 -2t11 -6t9 -9t6 -11t2 -13v-55q0 -17 -12 -29t-29 -12zM224 573q-17 0 -29 12t-12 29v55q0 11 5.5 20.5t15 15t20.5 5.5q9 0 16.5 -3.5t13 -9t8.5 -13t3 -15.5v-55q0 -17 -12 -29t-29 -12z" />
    <glyph glyph-name="uniE62C" unicode="&#xe62c;" 
d="M775 16q1 106 -17 126q-1 2 -5.5 8.5t-6 9t-5.5 8t-7.5 8.5t-8.5 7t-11 7l-1 31q-14 14 -24 41q-7 2 -10.5 5t-4.5 5t-1 6.5t-1 6.5v30q2 11 8 11q1 0 2 1t2.5 4.5t0.5 7.5q-2 51 -2 54v6v7q0 4 1 8t2.5 7.5t5.5 6t9 3.5t21 3q2 0 6.5 2.5t12.5 2.5l29 5q7 0 17 -7.5
t13 -7.5q1 0 2 1h7q6 -2 10.5 -5.5t6 -10t2.5 -11t1 -11.5v-8q3 -26 -2 -51q-1 -4 1 -6t5 -2h3q8 4 8 -20l-1 -21q-1 -4 0.5 -8t0.5 -6.5t-8 -7.5q-2 -7 -6.5 -14.5t-9.5 -12.5t-9 -8.5t-7 -5.5l-2 -2q-2 -21 -2 -25v-2q-1 -3 -1 -6t1 -7t4 -8t8.5 -8t15 -7t21.5 -5
q18 -2 31 -6t22.5 -9.5t13 -8t10.5 -9.5l7 -7q16 -9 26.5 -34t13.5 -41t3 -20h-201zM622 332q-5 -16 -18.5 -30t-23.5 -21l-10 -6q0 -27 -1 -33v-2v-4v-6q0 -3 0.5 -6t2.5 -7t4.5 -7.5t7.5 -7t11 -6.5t14.5 -5.5t19.5 -4.5q28 -4 47.5 -11.5t26.5 -12.5t15.5 -15.5
t10.5 -12.5q14 -14 14 -118l-463 -1v9q0 7 0.5 24t1.5 31.5t3.5 30.5t6.5 24q14 40 95 52q23 4 38 10.5t19.5 14t7.5 14.5t1.5 10.5t0.5 3.5l-2 39q-5 2 -13 6t-23.5 17.5t-20.5 28.5q-12 5 -18 10.5t-7 7.5l-2 13v35q4 18 12 18q2 0 5 0.5t7.5 3.5t3.5 9q-2 24 3 75
q2 16 12 34.5t29 22.5q6 1 27 4q3 0 9 3.5t16 3.5l37 15q11 0 23.5 -17.5t16.5 -18.5q3 0 12 1.5t19 -0.5q9 -2 14.5 -7t7.5 -13t3 -14t1.5 -15t0.5 -10q4 -47 0 -67q-1 -6 0.5 -8.5t3.5 -2.5h2q9 0 14 -13.5t5 -26.5v-13q-1 -4 -2.5 -6.5t-2.5 -4.5t-4 -4t-5 -3.5
t-7.5 -4.5t-8.5 -5zM338 262q-9 -27 -29 -41v-5v-12q0 -8 -1 -14q-8 -5 -15 -11.5t-10 -10t-9.5 -14t-7.5 -12.5q-17 -46 -17 -127h-201q0 8 1 20.5t11.5 38.5t30.5 37l7 7q7 7 10.5 9.5t13 8t22.5 9.5t31 6q8 2 15 4t11.5 5t8 6t5.5 6t3.5 6t2 6t0.5 5v3v2l1 25
q-1 1 -2.5 2t-6.5 5.5t-9 9t-9 12t-7 14.5q-5 4 -7.5 7.5t-3 5.5t-0.5 6.5t-1 7.5v3q0 4 0.5 9.5t2 10.5t4.5 9t8 4h1q1 0 2.5 2t0.5 6q-4 17 0 51v7q0 5 0.5 9t1.5 9.5t3 9t6 7t9 4.5h7v-1h2q2 0 5 2t5.5 4t5.5 4t7 3.5t8 1.5l28 -5q5 0 7.5 -0.5t3 -1.5t2 -2t3.5 -1
q17 -2 21 -3q8 -2 12 -7t5 -9.5t1 -12.5v-9q1 -9 -1 -54q-1 -4 1.5 -7.5t4.5 -4.5l3 -1q3 0 5 -2t3 -6v-8q1 -4 1 -8.5t-0.5 -8t-0.5 -5.5l-1 -3v-8q0 -6 -3 -9t-12 -6z" />
    <glyph glyph-name="uniE62D" unicode="&#xe62d;" 
d="M539 4v-93h115v-57h-115h-116h-115v57h115v93q-57 12 -103 45.5t-72.5 82.5t-26.5 105v136h9q13 28 35 28q7 0 13.5 -3.5t11.5 -10t9 -14.5h9v-116q0 -71 50.5 -122t122.5 -51t122.5 51t50.5 122v116h9q13 28 34.5 28t34.5 -28h8v-136q0 -84 -57 -149.5t-144 -83.5z
M481 142q-19 0 -36.5 5.5t-31.5 16.5t-25 25t-16.5 31.5t-5.5 36.5v346q0 48 33.5 82t81.5 34q31 0 57.5 -15.5t42 -42t15.5 -58.5v-346q0 -48 -33.5 -81.5t-81.5 -33.5z" />
    <glyph glyph-name="uniE62E" unicode="&#xe62e;" 
d="M622 282q10 9 23 9t22 -9l262 -263q9 -9 9 -21.5t-9 -21.5l-81 -76q-3 -3 -7.5 -5.5t-9.5 -3t-9.5 0t-9.5 3t-8 5.5l-260 260q-6 6 -8.5 14t0 16t8.5 14l23 25l-42 42q-35 -41 -98.5 -120.5t-110.5 -138.5l-46 -59l-40 -39q-25 -25 -62 -25t-62.5 25.5t-25.5 61.5t26 62
l39 38l302 272l-4 8l-231 231q-6 -3 -13.5 -3t-13.5 1.5t-11.5 3.5t-8.5 4l-3 1l-39 37l73 71l38 -36q8 -8 10 -20t0 -20l-2 -8l236 -236h5l72 81q-8 17 -12.5 30.5t-7.5 29.5t-0.5 31t8.5 31.5t19.5 34.5t33.5 37q25 24 56 38t62 16t62 -7l-103 -101q-4 -4 -6 -8t-2.5 -8
t0 -8t2.5 -8t6 -7l46 -46q5 -5 12 -7t14.5 0t12.5 7l108 105q22 -46 12.5 -100.5t-50.5 -94.5q-48 -46 -91.5 -56t-102.5 15q-1 0 -9.5 -7.5t-19 -19t-21.5 -23t-19 -19.5l-7 -8l45 -45zM208 18q-8 8 -19.5 8t-20.5 -8q-5 -5 -7 -12.5t0 -14.5t7 -12q9 -8 20.5 -8t19.5 8
q4 4 6 9t2 10.5t-2 10.5t-6 9zM869 -13q9 -9 18.5 0t-0.5 19l-233 241q-9 10 -18.5 0.5t0.5 -18.5zM587 200q-9 -10 0 -19l233 -242q10 -9 19.5 0.5t-0.5 18.5l-233 242q-3 2 -6 3t-6.5 0t-6.5 -3z" />
    <glyph glyph-name="uniE62F" unicode="&#xe62f;" 
d="M896 195l-260 -288q-20 -20 -48.5 -20t-48.5 20l-417 389q-22 3 -5 404v4h13q8 0 32.5 1t49 1.5t58.5 0.5h62q29 0 60 -1t53.5 -2.5t38.5 -4.5t20 -8l416 -375q8 -8 10.5 -20.5t0 -26t-7.5 -28t-12 -26.5t-15 -20zM299 620q-21 21 -50.5 21t-50.5 -21t-21 -50.5t21 -50.5
t50.5 -21t50.5 21t21 50.5t-21 50.5z" />
    <glyph glyph-name="uniE630" unicode="&#xe630;" 
d="M512 202v-114v-57h-57v1q-32 0 -54 16l-323 230q-8 5 -13 11.5t-7.5 13t-2.5 13.5t2.5 14t7.5 13.5t13 11.5l323 230q22 16 54 16v1h57v-57v-115q5 1 15.5 1.5t41.5 -2t61.5 -8.5t71.5 -21.5t76.5 -39t71.5 -63.5t61.5 -90.5t41.5 -125t16 -164.5q-2 6 -5 16.5t-17 40
t-33 56.5t-56 60t-82 56.5t-114 39.5t-150 16z" />
    <glyph glyph-name="uniE631" unicode="&#xe631;" 
d="M301 456q0 -42 17 -80.5t45 -66.5t67 -44.5t82 -16.5q87 0 149 61t62 147q0 43 -17 81.5t-45 66.5t-67 44.5t-82 16.5q-87 0 -149 -61t-62 -148zM723 196h-422q-87 0 -148.5 -61t-61.5 -148v-52h7h828h7v52q0 87 -61.5 148t-148.5 61z" />
    <glyph glyph-name="uniE632" unicode="&#xe632;" 
d="M750 -127h-476q-18 0 -33.5 9.5t-24.5 26t-9 35.5v712q0 29 20 50t47 21h476q18 0 33.5 -9.5t24.5 -26t9 -35.5v-712q0 -42 -35 -62q-16 -9 -32 -9zM790 656q0 7 -2 14t-5.5 12.5t-8.5 9.5t-11.5 6t-12.5 2h-476q-16 0 -28 -13t-12 -31v-712q0 -12 5.5 -22t14.5 -16
t20 -6h476q16 0 28 13t12 31v712zM735 37h-446q-6 0 -11.5 3.5t-8.5 8.5t-3 12v585q0 6 3 11.5t8.5 8.5t11.5 3h446q9 0 16 -6.5t7 -16.5v-585q0 -10 -7 -17t-16 -7zM512 7q17 0 28.5 -11.5t11.5 -28t-11.5 -28.5t-28.5 -12q-11 0 -20 5.5t-14.5 14.5t-5.5 20q0 28 26 38
q7 2 14 2z" />
    <glyph glyph-name="uniE633" unicode="&#xe633;" 
d="M903 51l-383 -150l-382 150q-23 0 -39 14.5t-16 35.5v548q0 20 16 35t39 15h54v-22l328 -128l328 128v22h55q14 0 27 -7t20 -18.5t7 -24.5v-548q0 -10 -4 -19.5t-11.5 -16t-17.5 -10.5t-21 -4zM192 151l274 -125v440l-274 83v-398zM848 549l-273 -83v-440l273 125v398z
" />
    <glyph glyph-name="uniE634" unicode="&#xe634;" 
d="M840 -28v-82q0 -11 -8 -19t-19.5 -8t-19.5 8t-8 19v82h-54h-5v1q-44 2 -74.5 33t-30.5 75v164q0 23 9 43t23.5 34.5t34.5 23.5t43 9h11h62h35v3q0 2 0.5 3.5t0.5 3.5v3q0 86 -44 158t-119.5 114.5t-164.5 42.5t-164.5 -42.5t-119.5 -114.5t-44 -158q0 -2 0.5 -7t0.5 -6
h35h62h11q46 0 78 -32t32 -78v-164q0 -44 -30.5 -75t-74.5 -33v-1h-5h-59h-50q-45 0 -77 32t-32 77v164q0 31 15.5 56t40.5 39q-2 21 -2 28q0 101 51.5 185.5t139.5 134t192 49.5q78 0 149 -29t122 -78.5t81.5 -118t30.5 -143.5q0 -7 -2 -28q25 -14 40.5 -39t15.5 -56v-164
q0 -45 -32 -77t-77 -32zM270 27h23q23 0 39 16t16 38v164q0 23 -16 39t-39 16h-34q-20 -60 -20 -123q0 -79 31 -150zM129 245v-164q0 -14 7.5 -27t20 -20t27.5 -7h26q-26 72 -26 150q0 21 2 42.5t6 41t9 39.5h-17q-23 0 -39 -16t-16 -39zM765 300h-34q-12 0 -22 -4.5
t-17 -11.5t-11.5 -17.5t-4.5 -21.5v-164q0 -14 7.5 -27t20 -20t27.5 -7h23q31 71 31 150q0 62 -20 123zM895 245q0 23 -16 39t-39 16h-17q17 -61 17 -123q0 -78 -26 -150h26q23 0 39 16t16 38v164z" />
    <glyph glyph-name="uniE635" unicode="&#xe635;" 
d="M512 -143q-88 0 -168.5 35t-139 94.5t-93 141.5t-34.5 172t34.5 172t93 141.5t139 94.5t168.5 35t168.5 -35t139 -94.5t93 -141.5t34.5 -172q0 -60 -15.5 -117.5t-44 -106t-68.5 -89.5t-87.5 -69.5t-104 -44.5t-115.5 -16zM512 683q-102 0 -188.5 -51.5t-137 -139.5
t-50.5 -192t50.5 -192t137 -139.5t188.5 -51.5t188.5 51.5t137 139.5t50.5 192t-50.5 192t-137 139.5t-188.5 51.5zM533 281l-156 -174q-1 0 -2.5 -1.5t-6 -4t-8.5 -3t-10 1t-11 5.5q-8 8 -8.5 17.5t2.5 15.5l4 6l148 166v318q1 3 2 7.5t7.5 12.5t17.5 8t18 -7t8 -14l1 -7
v-324q1 -5 -1 -11l-3 -9z" />
    <glyph glyph-name="uniE636" unicode="&#xe636;" 
d="M351 -22h-161v161v590h161v-590h590v-161h-590zM673 461h-295v161h456v-161v-295h-161v295zM83 622h81v-161h-81v161zM834 -129h-161v81h161v-81z" />
    <glyph glyph-name="uniE637" unicode="&#xe637;" 
d="M940 500l-64 -60l-213 199l64 59q18 17 42 17.5t41 -14.5l133 -124q17 -16 16 -38.5t-19 -38.5zM385 -16l-213 198l470 437l213 -199zM65 -116l85 278l214 -198z" />
    <glyph glyph-name="uniE638" unicode="&#xe638;" 
d="M674 600h-324l-270 -327v-218q0 -23 15.5 -39t38.5 -16h756q15 0 27.5 7.5t19.5 20t7 27.5v218zM620 164h-216l-54 54h324zM150 273l225 272h274l225 -272h-724zM320 436h384l-45 55h-294zM230 327h564l-45 55h-474z" />
    <glyph glyph-name="uniE639" unicode="&#xe639;" 
d="M944 48v413q0 21 -20 21h-13q-4 0 -7.5 1.5t-5.5 4t-3.5 5.5t-1.5 7v34q0 17 -17 20q-229 44 -348 -40q-12 -8 -17 -8t-17 8q-120 84 -349 40q-16 -3 -16 -20v-34q0 -2 -0.5 -4t-1.5 -4t-2 -3.5t-2.5 -2.5t-3.5 -2t-4 -1.5t-4 -0.5h-13q-8 0 -14.5 -6t-6.5 -15l1 -413
q0 -9 6 -15t14 -6h350q5 0 8.5 -3.5t3.5 -8.5q0 -12 11 -12h79q5 0 8.5 3.5t3.5 8.5q0 12 12 12h349q9 0 15 6t6 15zM482 67q-113 71 -305 39q-5 -1 -10.5 1t-8.5 7t-3 11v390q0 5 2 9.5t6 7.5t9 3q201 34 310 -48q7 -6 11.5 -14t4.5 -18v-379q0 -6 -5.5 -9t-10.5 0zM540 67
q59 37 140 46t164 -7q4 -1 7 -0.5t6 2.5t5 4.5t3.5 5.5t1.5 7v390q0 4 -1.5 7.5t-3.5 6t-5.5 4.5t-7.5 2q-200 34 -309 -48q-4 -3 -7 -6.5t-5 -7.5t-3 -8.5t-1 -9.5v-379q0 -3 1.5 -5.5t4 -3.5t5 -1t5.5 1z" />
    <glyph glyph-name="uniE63A" unicode="&#xe63a;" 
d="M852 -141h-600q-43 0 -74 30.5t-31 73.5v674q0 43 31 73.5t74 30.5h600q7 0 12.5 -3.5t9 -9t3.5 -11.5v-118q0 -5 -2.5 -8.5t-6 -5.5t-7.5 -2h-6q-6 0 -11 4.5t-5 11.5v80q0 2 -0.5 4.5t-1.5 4.5l-2 4q-1 2 -3 4t-3.5 3t-4 2t-5 1.5t-4.5 0.5h-563q-24 0 -40.5 -14.5
t-21 -36t-1 -42.5t20.5 -36t42 -15h600q7 0 12.5 -3t9 -8.5t3.5 -12.5v-652q0 -6 -3.5 -11.5t-9 -9t-12.5 -3.5z" />
    <glyph glyph-name="uniE63B" unicode="&#xe63b;" 
d="M282 211v-101q0 -42 72 -65.5t159 -23.5t159 23.5t72 65.5v101q0 8 -6.5 12t-13.5 1l-198 -83q-14 -5 -27 0l-197 83q-7 3 -13.5 -1.5t-6.5 -11.5zM192 271v-87v-3q3 -2 5 0q5 4 8 1t3.5 -7t0.5 -8q0 -10 -3 -18q-1 -1 1 -1q4 -1 4 -5.5t-4 -5.5q-2 -1 -1 -2
q6 -11 10.5 -22t7.5 -23.5t3 -24.5t-2 -23.5t-8.5 -22.5t-16.5 -19q-1 -1 -1.5 -1t-0.5 2q1 6 2 13q1 11 -0.5 12t-5.5 -12q-6 -18 -12 -26q-2 -3 -2 1q-2 14 -3 27q-1 17 -3 17q-2 1 -2 -10q-1 -8 -1 -18q0 -2 -0.5 -2.5t-1.5 2.5q-2 6 -3 11q-1 6 -2 6q-2 1 -1 -9
q0 -6 1 -13q0 -1 -1 -1.5t-2 0.5q-28 25 -29 62.5t25 75.5q1 1 0 2q-5 1 -5 5.5t5 5.5q2 0 1 1q-3 8 -2 16q0 5 1 9t4 7.5t7 1.5q2 -1 2.5 -1t2.5 1q2 0 2 3v98q-2 5 -6 8l-71 29q-4 2 -6 5.5t-2 7.5t2.5 7.5t6.5 4.5l403 119q10 3 20 0l403 -119q9 -2 9.5 -11.5t-8.5 -13.5
l-400 -167q-7 -3 -14 -3t-14 3l-294 123q-3 1 -6 0.5t-4.5 -3t-1.5 -5.5z" />
    <glyph glyph-name="uniE63C" unicode="&#xe63c;" 
d="M590 482q-19 22 -37 40.5t-36 33.5q-5 4 -10 0q-37 -31 -73 -74q-3 -4 -0.5 -8.5t7.5 -4.5q71 5 142 0q5 0 7.5 4.5t-0.5 8.5zM510 426q49 0 84 -35t35 -85q0 -19 -6 -37.5t-17 -33t-25.5 -26t-33 -17.5t-37.5 -6q-50 0 -85 35t-35 85q0 19 6 37.5t17 33t26 26t33 17.5
t38 6zM765 88v4q0 3 -1 6q0 2 -1.5 4t-3.5 3t-5 0q-52 -16 -115 -24q-8 -1 -14 -4.5t-11 -9.5q-38 -51 -78 -88q-7 -7 1 -13q24 -16 47.5 -25.5t44 -13t39.5 -0.5t35 12q4 2 4.5 6.5t-2.5 7.5q-18 25 -18 52.5t20 49.5t51 24q2 1 3.5 2t2.5 3t1 4zM793 74q22 -9 35 -28.5
t13 -42.5t-12 -41.5t-32 -28t-42 -7.5q-4 1 -8 -2q-34 -40 -97 -33t-133 63q-5 4 -10 0q-71 -56 -133.5 -63t-99.5 34t-40 119q0 2 -1.5 4t-3.5 3q-29 9 -44 34.5t-9 54.5q1 5 -3 8q-65 41 -81 93.5t21 102.5t121 83q2 1 3.5 3.5t1.5 5.5q-5 31 -4.5 58t4.5 50t13 41
t20.5 32t27.5 22.5t33.5 12.5t38 2t42 -9.5t45.5 -21t48 -32.5q5 -4 10 0q46 36 90 52q4 2 5 6q3 13 10 24t16.5 19t22.5 13t26 5q39 0 62 -31.5t12 -68.5q-1 -3 1 -6q39 -60 24 -167q-2 -7 5 -10q71 -28 108.5 -70t37 -85t-38 -85t-108.5 -70q-6 -2 -5 -8q2 -14 4 -29
q0 -4 4 -6zM263 208q9 24 20 50q3 7 3 14t-3 14q-13 30 -22 58t-15 54q-1 3 -2.5 4.5t-4 2t-4.5 -0.5q-45 -22 -72 -51.5t-33.5 -60t7 -61.5t45.5 -57q3 -2 6 -2t5 3q24 28 61 26q7 0 9 7zM286 193q11 -5 19.5 -13.5t14 -18.5t7.5 -21.5t1 -23.5q1 -7 6 -9q9 -2 17.5 -3.5
t17.5 -3.5q5 -1 8 3.5t0 9.5q-40 59 -71 122q-2 5 -7.5 4.5t-6.5 -4.5q-6 -16 -11 -30q-2 -8 5 -12zM318 87q-17 -31 -51 -38q-3 0 -4.5 -2.5t-1.5 -6.5q12 -86 76 -108t150 34q8 6 1 13q-40 37 -78 88q-10 12 -25 14t-29.5 4.5t-28.5 4.5q-6 2 -9 -3zM731 569
q-22 -13 -45 -13t-43 14t-28 37q-3 7 -10 5q-16 -5 -33.5 -13.5t-34.5 -20.5q-8 -5 -1 -12q40 -37 78 -88q10 -12 25 -14q62 -8 113 -24q5 -1 8.5 1.5t4.5 7.5q4 73 -23 118q-4 7 -11 2zM487 578q-39 26 -75 35.5t-65 2t-50 -28.5t-31 -57t-6 -83q0 -4 3 -6t7 -1
q17 5 35 9.5t38.5 8t41.5 6.5q15 2 25 14q38 51 78 88q3 3 2.5 6.5t-3.5 5.5zM655 100q55 10 100 26q6 3 5 9q-8 47 -28 100q-1 5 -6.5 5t-7.5 -5q-31 -63 -71 -123q-3 -4 0 -8.5t8 -3.5zM306 309q16 32 33.5 63t37.5 60q2 3 1.5 6t-3.5 5t-6 1q-11 -1 -22 -3.5t-21 -4.5
l-20 -6q-10 -2 -19 -5l-18 -6q-3 -1 -4.5 -3.5t-0.5 -5.5q8 -47 28 -100q1 -5 6.5 -5t7.5 4zM778 396q-12 -52 -37 -109q-6 -15 0 -29q25 -58 37 -112q1 -3 4.5 -5t6.5 0q70 34 95 82.5t0.5 97t-93.5 82.5q-4 2 -8 0t-5 -7zM598 93q-86 -8 -172 0q-17 2 -26 15
q-25 35 -47 73t-39 76q-7 15 0 31q36 78 86 149q3 4 7 7.5t9 5t10 2.5q28 2 57 3t58 0t57 -3q8 -1 15 -5t11 -10q50 -71 86 -149q2 -3 2.5 -6t1 -6.5t0.5 -6.5l-2 -6q0 -3 -2 -6q-17 -38 -39 -76t-47 -73q-9 -13 -26 -15zM590 63q-36 -44 -73 -74q-5 -3 -10 0
q-18 15 -36.5 33.5t-36.5 40.5q-3 4 -0.5 8.5t7.5 4.5q71 -5 142 -1q5 1 7.5 -3.5t-0.5 -8.5zM760 408q-4 -22 -11 -47t-17 -51q-1 -3 -4 -4.5t-6 -0.5t-4 4q-31 64 -71 123q-3 5 0 9t8 3q54 -9 99 -25q7 -3 6 -11z" />
    <glyph glyph-name="uniE63D" unicode="&#xe63d;" 
d="M469 710q73 0 140 -30q2 -1 4 -1.5t4.5 -0.5t4.5 1l4 2q2 1 3.5 2.5t2.5 4.5l12 21l12 23q4 7 11 9t14 -1q95 -56 151.5 -152.5t56.5 -210.5q0 -36 -6 -71.5t-17.5 -67.5t-27.5 -62.5t-37 -57t-46 -50t-53.5 -42t-59.5 -33t-65 -23.5t-69 -12q-7 -1 -11.5 -6t-4.5 -12
v-18q0 -8 5 -13t13 -5h192q6 0 10 -4t4 -10v-18q0 -6 -4 -10t-10 -4h-467q-6 0 -10 4t-4 10v18q0 3 1 5.5t3 4.5t4.5 3t5.5 1h193q7 0 12.5 5t5.5 13v18q0 7 -5 12t-12 6q-73 7 -140 38q-17 8 -7 26l23 44q3 6 1 13t-8 11q-75 44 -119 120.5t-44 166.5t44.5 167t121.5 121.5
t168 44.5zM666 645q31 -23 56 -52t43 -63t27.5 -73.5t9.5 -79.5q0 -68 -26.5 -130t-71 -106.5t-106.5 -71t-129 -26.5q-29 0 -56.5 4.5t-53.5 14.5q-11 3 -17 -7l-7 -13q-2 -5 0 -11t8 -8q61 -22 126 -22q101 0 187.5 50.5t137 137t50.5 188.5q0 92 -41.5 171.5
t-113.5 131.5q-5 4 -11 2.5t-9 -6.5l-7 -13q-5 -11 4 -18zM647 360q9 32 16 60q1 6 2.5 7.5t3.5 0.5t7 -5q6 -5 14.5 -11.5t16.5 -13t14 -12.5q10 -8 12 -3l1 10q1 9 2.5 19t5.5 25q0 2 2 3t4 0t3 -3q6 -30 6 -60v-1v-1v-1q0 -1 -1 -2l-8 -13q-3 -5 -3.5 -7t0.5 -3t6 -1h1
l2 -2q1 -1 1 -3q-1 -5 -1 -9q-1 -4 -5 -4l-5 1h-2q-7 0 -9 1t-5 7q-2 3 -5 10q-15 31 -17 31l7 -30l2 -7q1 -3 3 -10.5t3 -10.5q2 -8 4.5 -9.5t10.5 -0.5h1h1h1l1 1h1h1h1q5 -1 6 -5q-24 -96 -102 -158t-178 -62q-120 0 -204.5 84.5t-84.5 204t84.5 204t204.5 84.5
q44 0 87 -14q2 0 2.5 -1.5t0 -3.5t-1.5 -3q-40 -22 -90 -51q-12 -7 -27 -8q-6 0 -12 -0.5t-11 -1t-12 -1t-11 -0.5t-5.5 -0.5t-3 -1.5t-2 -3t-0.5 -5q-1 -7 -3.5 -21t-3.5 -21q-2 -10 -6 -18q-1 -3 -3 -7.5t-3.5 -8t-3.5 -8t-4 -7.5q-2 -5 -3.5 -6.5t-5.5 -3.5q-3 -1 -7 -3
t-5 -3t-1.5 -3t0.5 -5v-5l1 -5q0 -6 1.5 -7t6.5 0h5h4q9 0 15 7q3 4 6.5 9t7 9.5t6.5 8.5q5 6 13 4q5 -1 15.5 -3.5t16.5 -3.5q7 -2 12 -7q4 -3 8 -7t8.5 -8t7.5 -7q4 -3 3.5 -4.5t-5.5 -2.5q-24 -4 -31 -5q-4 -1 -6.5 -0.5t-6.5 3.5q-1 1 -3 2.5t-4 2.5t-3.5 2.5t-3.5 3
t-4 2.5t-3.5 1.5t-3.5 0.5t-5 -2t-7 -3.5t-7 -3.5t-7 -3.5t-7.5 -3.5t-7 -3.5t-6.5 -3.5q-8 -4 -11 -13q-12 -39 -19 -61q-3 -10 3 -19q4 -6 8 -11.5t7.5 -11t8.5 -11.5q4 -6 6 -7t9 1q18 4 44 9q7 2 9.5 0.5t4.5 -8.5q17 -47 52 -148q3 -8 4.5 -10t3 -0.5t4.5 7.5
q10 17 42 74q7 13 9 30q2 11 6 41.5t6 47.5q1 7 0.5 10t-3 4t-7.5 0q-9 -1 -12 0.5t-8 9.5q-17 28 -27 45q-7 12 -6 12t7 -7q6 -6 15.5 -17t13.5 -15q8 -10 11 -10t9 8q3 5 7.5 11t9.5 12.5t8 11.5q5 6 4 8.5t-10 6.5q-2 1 -7.5 3t-8.5 4l-10 5q0 1 10 -1q4 -1 10 -2
t10 -1.5t9.5 -1.5t10.5 -2q4 0 6.5 -1t4.5 -2t4 -2.5t3.5 -3.5t3.5 -7q5 -9 15.5 -26.5t15.5 -26.5q3 -7 5 -8.5t3.5 0.5t2.5 9zM550 240q-1 -2 -2.5 -4t-3 -4.5t-2.5 -4.5q-6 -9 -6.5 -13.5t1.5 -15.5q2 -17 4 -19q1 -1 2 3q2 3 4 13q2 6 5.5 19.5t5.5 20.5q5 20 4 21
l-8 -10z" />
    <glyph glyph-name="uniE63E" unicode="&#xe63e;" 
d="M897 25l-385 -164l-385 164q-22 0 -38 16.5t-16 38.5v604q0 23 16 39t38 16h55v-23l330 -141l330 141v23h55q22 0 38 -16t16 -39v-604q0 -22 -16 -38.5t-38 -16.5zM182 135l275 -137v485l-275 92v-440zM842 575l-275 -92v-485l275 137v440z" />
    <glyph glyph-name="uniE63F" unicode="&#xe63f;" 
d="M899 24l-387 -166l-387 166q-22 0 -38.5 16t-16.5 39v608q0 22 16.5 38.5t38.5 16.5h56v-24l331 -142l331 142v24h56q22 0 38.5 -16.5t16.5 -38.5v-608q0 -23 -16.5 -39t-38.5 -16zM181 134l276 -138v488l-276 92v-442zM843 576l-276 -92v-488l276 138v442z" />
    <glyph glyph-name="uniE640" unicode="&#xe640;" 
d="M955 -32v-56q0 -23 -16.5 -39t-39.5 -16h-55h-553h-111h-55q-23 0 -39.5 16t-16.5 39v56v221v388q0 15 7.5 27.5t20.5 20t28 7.5h55v56q0 23 16 39t39 16h554h110q23 0 39.5 -16t16.5 -39v-56v-664zM291 466v55h-111v-553h111v55v443zM844 23v609h-55h-56h-332v-111v-498
v-55h222h110h111v55zM678 521h55v-110h-55h-111h-55v110h55h111zM678 355h55v-110h-55h-111h-55v110h55h111zM678 189h55v-110h-55h-111h-55v110h55h111z" />
    <glyph glyph-name="uniE641" unicode="&#xe641;" 
d="M104 629l-3 -20l8 -75q3 -10 8.5 -28t27.5 -72t50.5 -106t79.5 -121.5t111 -127t148 -114t188 -91.5q1 1 9 0t23 2.5t33 7t38 15.5t38 27.5t34 42.5t25 61l1 41l-232 126q-6 2 -14.5 3.5t-29.5 -7.5t-36 -34q-1 -2 -3 -5t-9.5 -9.5t-16 -9t-22 1t-28.5 14.5
q-5 4 -15 11.5t-37.5 30.5t-52.5 47.5t-53.5 60.5t-47.5 72q-2 2 -3.5 6t2.5 13.5t17 14.5q3 2 8.5 5t19 11.5t24.5 17.5t19.5 21.5t8.5 23.5l-112 245q-1 1 -3 4t-9.5 8t-15.5 7t-22 -2t-28 -16q-77 -40 -117 -88q-6 -8 -11 -15z" />
    <glyph glyph-name="uniE642" unicode="&#xe642;" 
d="M959 540v-418l-251 223zM65 596v84h894v-84l-447 -362zM65 122v418l251 -195zM512 178l168 139l279 -250h-894l279 250z" />
    <glyph glyph-name="uniE643" unicode="&#xe643;" 
d="M737 376q-12 0 -24 1t-23 3q-13 -16 -29 -28.5t-31.5 -19.5t-31 -11.5t-28.5 -6t-23 -1.5h-16l-6 1q20 9 34 22t20.5 25t9 23t1 18.5t-5.5 10.5q-85 50 -85 130q0 73 69 123t169 50q98 0 156.5 -49t58.5 -124q0 -74 -58 -120.5t-157 -46.5zM436 196l-1 -19l1 -5
q0 -4 0.5 -12t2 -18t6.5 -20.5t12 -19.5t19.5 -16t28.5 -10q36 -5 72 -22t53 -29.5t28 -23.5q7 -7 13 -37t8.5 -53t2.5 -27h-610v5v13q0 9 0.5 18t1.5 21t3.5 22t6.5 20.5t9 17.5q19 18 64 43t96 32q22 4 36.5 15.5t19 25.5t6 27.5t1 22.5t-0.5 8q1 1 1 5t-1 9l-1 5
q-7 7 -17 17.5t-27 39t-16 50.5v84q0 5 1 13.5t7 31t15 40t26.5 31.5t40.5 14l63 -33q20 0 37 -10t26.5 -24.5t15.5 -28.5t9 -24l2 -10v-91q-1 -2 -1.5 -5t-3 -10.5t-5.5 -15.5t-8 -18t-11 -18.5t-14.5 -17t-17.5 -13.5z" />
  </font>
</defs>
</svg>
